HIERARCHY
ROOT pelvis
{
	OFFSET 0.000000 0.000000 0.905597
	CHANNELS 6 Xposition Yposition Zposition Xrotation Yrotation Zrotation
	JOINT spine
	{
		OFFSET 0.000000 0.000000 0.000000
		CHANNELS 6 Xposition Yposition Zposition Xrotation Yrotation Zrotation
		JOINT spine.001
		{
			OFFSET 0.000000 -0.014990 0.286021
			CHANNELS 3 Xrotation Yrotation Zrotation
			JOINT neck
			{
				OFFSET 0.000000 0.034905 0.284278
				CHANNELS 6 Xposition Yposition Zposition Xrotation Yrotation Zrotation
				JOINT face
				{
					OFFSET 0.000000 0.003661 0.209740
					CHANNELS 6 Xposition Yposition Zposition Xrotation Yrotation Zrotation
					End Site
					{
						OFFSET 0.000000 -0.029649 -0.008906
					}
				}
			}
			JOINT shoulder.L
			{
				OFFSET 0.000000 0.034905 0.284278
				CHANNELS 6 Xposition Yposition Zposition Yrotation Xrotation Zrotation
				JOINT upper_arm.L
				{
					OFFSET 0.176212 0.000000 0.000000
					CHANNELS 6 Xposition Yposition Zposition Xrotation Yrotation Zrotation
					JOINT forearm.L
					{
						OFFSET 0.321055 0.000132 0.001092
						CHANNELS 6 Xposition Yposition Zposition Xrotation Yrotation Zrotation
						End Site
						{
							OFFSET 0.264216 -0.004491 -0.001504
						}
					}
				}
			}
			JOINT shoulder.R
			{
				OFFSET 0.000000 0.034905 0.284278
				CHANNELS 6 Xposition Yposition Zposition Yrotation Xrotation Zrotation
				JOINT upper_arm.R
				{
					OFFSET -0.176212 0.000000 0.000000
					CHANNELS 6 Xposition Yposition Zposition Xrotation Yrotation Zrotation
					JOINT forearm.R
					{
						OFFSET -0.306861 0.000132 0.001092
						CHANNELS 6 Xposition Yposition Zposition Xrotation Yrotation Zrotation
						End Site
						{
							OFFSET -0.266230 -0.004526 -0.001504
						}
					}
				}
			}
		}
	}
	JOINT pelvis.L
	{
		OFFSET 0.000000 0.000000 0.000000
		CHANNELS 6 Xposition Yposition Zposition Yrotation Xrotation Zrotation
		End Site
		{
			OFFSET 0.118829 0.000000 0.000000
		}
	}
	JOINT pelvis.R
	{
		OFFSET 0.000000 0.000000 0.000000
		CHANNELS 6 Xposition Yposition Zposition Yrotation Xrotation Zrotation
		End Site
		{
			OFFSET -0.118829 0.000000 0.000000
		}
	}
	JOINT thigh.L
	{
		OFFSET 0.118829 0.000000 0.000000
		CHANNELS 6 Xposition Yposition Zposition Xrotation Yrotation Zrotation
		JOINT shin.L
		{
			OFFSET 0.023045 0.000000 -0.439733
			CHANNELS 6 Xposition Yposition Zposition Xrotation Yrotation Zrotation
			JOINT foot.L
			{
				OFFSET 0.019808 0.000000 -0.377965
				CHANNELS 3 Xrotation Yrotation Zrotation
				End Site
				{
					OFFSET 0.018349 -0.187092 -0.078563
				}
			}
			JOINT heel.02.L
			{
				OFFSET 0.019808 0.000000 -0.377965
				CHANNELS 3 Xrotation Yrotation Zrotation
				End Site
				{
					OFFSET 0.099154 0.039284 -0.081699
				}
			}
		}
	}
	JOINT thigh.R
	{
		OFFSET -0.118829 0.000000 0.000000
		CHANNELS 6 Xposition Yposition Zposition Xrotation Yrotation Zrotation
		JOINT shin.R
		{
			OFFSET -0.023282 0.000000 -0.444255
			CHANNELS 6 Xposition Yposition Zposition Xrotation Yrotation Zrotation
			JOINT foot.R
			{
				OFFSET -0.020276 0.000000 -0.386894
				CHANNELS 3 Xrotation Yrotation Zrotation
				End Site
				{
					OFFSET -0.018548 -0.189120 -0.079415
				}
			}
			JOINT heel.02.R
			{
				OFFSET -0.020276 0.000000 -0.386894
				CHANNELS 3 Xrotation Yrotation Zrotation
				End Site
				{
					OFFSET -0.093155 0.039284 -0.068525
				}
			}
		}
	}
}
MOTION
Frames: 10
Frame Time: 0.041667
0.052094 -0.056586 0.866264 -0.000000 0.000000 1.206246 0.000000 -0.000000 -0.000000 -2.464461 2.605126 0.192815 9.998025 0.163547 1.332043 -0.000000 0.034905 0.284278 13.839976 0.523463 15.575271 -0.000000 0.003661 0.209740 -3.028973 -0.000001 -0.000005 -0.000000 0.034905 0.284278 -0.807239 0.000697 0.099061 0.176212 0.000000 -0.000000 -22.634356 78.383934 27.498014 0.321055 0.000132 0.001092 0.537429 3.774299 -17.178604 -0.000000 0.034905 0.284278 -0.751969 0.000605 0.092251 -0.176212 -0.000000 0.000000 -9.517799 -77.751035 -11.724251 -0.306861 0.000132 0.001092 0.231436 -2.731383 10.122458 0.000000 -0.000000 0.000000 2.976428 0.000001 -0.000038 0.000000 -0.000000 0.000000 2.976428 -0.000000 0.000000 0.118669 -0.000000 -0.006170 7.343409 3.761864 0.144136 0.023045 0.000000 -0.439733 3.797817 1.451775 0.151073 -13.264697 0.538531 -3.394431 -7.834729 42.167775 28.911518 -0.118669 0.000000 0.006170 8.050220 1.861897 -0.553142 -0.023282 0.000000 -0.444255 2.975330 2.033676 -0.208592 -17.472561 -1.012588 4.666932 -14.951134 -44.347551 -32.695853 
0.053676 -0.058442 0.865198 -0.000000 0.000000 1.635900 0.000000 0.000000 0.000000 -2.821496 2.426712 0.187210 9.998892 0.124040 1.010110 -0.000000 0.034905 0.284278 13.943042 0.929559 15.068818 -0.000000 0.003661 0.209740 -2.980673 -0.000000 -0.000001 -0.000000 0.034905 0.284278 -0.249730 0.000067 0.030651 0.176212 -0.000000 0.000000 -13.037030 78.676211 15.805087 0.321055 0.000132 0.001092 0.466317 3.549983 -15.897786 -0.000000 0.034905 0.284278 -0.194410 0.000041 0.023921 -0.176212 0.000000 0.000000 -12.904661 -77.689474 -15.914629 -0.306861 0.000132 0.001092 0.384261 -3.786665 11.604161 0.000000 0.000000 0.000000 3.236527 0.000002 -0.000060 0.000000 0.000000 0.000000 3.236528 -0.000000 0.000000 0.118640 -0.000000 -0.006709 7.548971 4.161125 0.121789 0.023045 0.000000 -0.439733 3.657736 0.656648 0.170843 -13.766212 0.744209 -3.819315 -7.658625 42.407408 29.592850 -0.118640 0.000000 0.006709 8.539038 2.172833 -0.609964 -0.023282 -0.000000 -0.444255 2.312693 1.519107 -0.151779 -16.905087 -0.854940 4.351164 -13.699923 -43.620709 -32.868872 
0.055607 -0.060407 0.863309 -0.000000 0.000000 2.438699 -0.000000 -0.000000 0.000000 -3.157487 2.226701 0.178347 9.999735 0.057068 0.464796 -0.000000 0.034905 0.284278 13.944787 1.312136 14.851732 -0.000000 0.003661 0.209740 -2.869931 -0.000002 0.000000 -0.000000 0.034905 0.284279 0.171977 0.000032 -0.021177 0.176212 -0.000000 0.000000 -7.098507 78.786874 8.580150 0.321055 0.000132 0.001092 0.528640 3.622353 -17.809756 -0.000000 0.034905 0.284279 0.227251 0.000055 -0.027958 -0.176212 -0.000000 0.000000 -14.318225 -77.618372 -17.676072 -0.306861 0.000132 0.001092 0.525362 -4.575557 12.958902 0.000000 0.000000 0.000000 3.451520 0.000000 0.000012 0.000000 0.000000 0.000000 3.451520 -0.000000 0.000000 0.118614 0.000000 -0.007154 7.711626 4.401287 0.108193 0.023045 0.000000 -0.439733 3.489336 0.078290 0.180547 -13.980755 1.070010 -4.416037 -7.329459 42.248463 29.728805 -0.118614 0.000000 0.007154 9.166986 2.494006 -0.680636 -0.023282 -0.000000 -0.444255 1.587423 0.947965 -0.096290 -16.492550 -0.445348 3.625330 -12.989006 -43.304878 -33.267048 
0.058107 -0.063649 0.860635 0.000000 0.000000 3.175969 0.000000 0.000000 0.000000 -3.590870 1.994307 0.167324 9.999980 0.011180 0.091139 -0.000000 0.034905 0.284278 13.872824 1.679669 15.167366 0.000000 0.003661 0.209740 -2.628262 0.000000 0.000001 -0.000000 0.034905 0.284278 0.456673 0.000223 -0.056132 0.176212 0.000000 -0.000000 -2.794214 79.111110 3.331388 0.321055 0.000132 0.001092 0.729865 4.053520 -21.900395 -0.000000 0.034905 0.284278 0.511986 0.000280 -0.062917 -0.176212 0.000000 -0.000000 -13.327978 -77.489685 -16.493580 -0.306861 0.000132 0.001092 0.719003 -5.459863 14.771490 0.000000 0.000000 0.000000 3.609431 0.000000 -0.000007 0.000000 0.000000 0.000000 3.609400 -0.000000 0.000000 0.118593 -0.000000 -0.007481 7.978404 4.581647 0.099333 0.023045 0.000000 -0.439733 3.261574 -0.256334 0.178255 -14.108155 1.324479 -4.875039 -7.115501 41.964778 29.485250 -0.118593 0.000000 0.007481 9.904933 2.805073 -0.762520 -0.023282 -0.000000 -0.444255 0.837447 0.477820 -0.047370 -16.235665 -0.030241 2.899696 -12.791676 -43.335371 -33.722789 
0.060818 -0.069238 0.858039 0.000000 0.000000 3.114408 0.000000 0.000000 -0.000000 -4.246800 1.750986 0.157004 9.999761 0.059185 0.482106 -0.000000 0.034905 0.284278 13.847166 2.041951 16.014072 -0.000000 0.003661 0.209740 -2.252215 -0.000000 0.000007 -0.000000 0.034905 0.284278 0.670681 0.000480 -0.082369 0.176212 -0.000000 0.000000 5.701978 79.396339 -6.904121 0.321055 0.000132 0.001092 1.021027 4.933133 -24.576363 -0.000000 0.034905 0.284278 0.725993 0.000563 -0.089158 -0.176212 0.000000 0.000000 -11.102437 -77.197038 -13.812710 -0.306861 0.000132 0.001092 1.208024 -7.350868 18.264097 0.000000 -0.000000 -0.000000 3.729807 -0.000002 0.000057 0.000000 -0.000000 -0.000000 3.729836 -0.000000 -0.000000 0.118577 0.000000 -0.007730 8.465541 4.854758 0.085141 0.023045 -0.000000 -0.439733 3.089442 -0.379469 0.172153 -14.578632 1.224155 -4.745125 -7.343781 42.120554 29.472697 -0.118577 0.000000 0.007730 10.574839 3.046739 -0.836631 -0.023282 -0.000000 -0.444255 0.232240 0.330551 -0.012838 -16.054676 -0.042622 2.896603 -12.668416 -43.298659 -33.842327 
0.062757 -0.075908 0.856436 -0.000000 0.000000 2.377506 0.000000 -0.000000 0.000000 -4.998580 1.556693 0.149882 9.997909 0.171785 1.399225 -0.000000 0.034905 0.284278 13.844573 2.382459 17.088472 -0.000000 0.003661 0.209739 -1.830601 0.000001 0.000003 0.000000 0.034905 0.284278 0.809865 0.000703 -0.099481 0.176212 -0.000000 -0.000000 19.420005 78.691395 -23.594762 0.321055 0.000132 0.001092 1.406784 6.579627 -24.513151 0.000000 0.034905 0.284278 0.865145 0.000802 -0.106207 -0.176212 -0.000000 0.000000 -8.530328 -76.936583 -10.658184 -0.306861 0.000132 0.001092 2.299399 -10.456793 24.229650 0.000000 0.000000 -0.000000 3.810712 -0.000002 0.000072 0.000000 0.000000 -0.000000 3.810683 -0.000000 -0.000000 0.118566 -0.000000 -0.007897 8.954992 5.142525 0.067463 0.023045 -0.000000 -0.439733 3.208752 -0.260355 0.175479 -15.388560 0.849043 -4.182367 -7.855149 42.705676 29.898067 -0.118566 0.000000 0.007897 11.001663 3.117294 -0.877364 -0.023282 0.000000 -0.444255 -0.017620 0.534405 0.001005 -15.923300 -0.432908 3.537137 -12.444527 -43.045515 -33.517637 
0.063208 -0.080590 0.856340 -0.000000 0.000000 1.823489 0.000000 0.000000 -0.000000 -5.525420 1.494149 0.150797 9.996271 0.229198 1.867093 -0.000000 0.034905 0.284278 13.614679 2.661408 18.100845 -0.000000 0.003661 0.209740 -1.426914 0.000000 0.000008 -0.000000 0.034905 0.284278 0.815215 0.000710 -0.100090 0.176212 0.000000 -0.000000 30.619270 76.444406 -38.323368 0.321055 0.000132 0.001092 2.051066 9.524366 -23.878903 -0.000000 0.034905 0.284278 0.870526 0.000810 -0.106903 -0.176212 0.000000 0.000000 -4.581719 -77.082291 -5.691417 -0.306861 0.000132 0.001092 3.924640 -13.453986 31.873802 0.000000 0.000000 0.000000 3.794553 0.000000 -0.000000 0.000000 0.000000 0.000000 3.794553 -0.000000 -0.000000 0.118569 0.000000 -0.007864 9.094156 5.220591 0.062283 0.023045 0.000000 -0.439733 3.676534 0.055908 0.190956 -16.052918 0.587530 -3.812738 -8.185802 43.200725 30.417687 -0.118569 0.000000 0.007864 11.082325 2.960284 -0.868678 -0.023282 -0.000000 -0.444255 0.240840 0.915543 -0.014540 -15.862633 -0.742748 4.053227 -12.280826 -42.766990 -33.021758 
0.062595 -0.081918 0.858006 0.000000 0.000000 1.829509 0.000000 0.000000 0.000000 -5.678682 1.571922 0.160771 9.997852 0.176499 1.437896 -0.000000 0.034905 0.284278 12.975639 2.818248 19.002394 -0.000000 0.003661 0.209740 -0.997912 0.000001 0.000001 0.000000 0.034905 0.284278 0.689401 0.000509 -0.084703 0.176212 0.000000 -0.000000 35.295453 73.496203 -46.118131 0.321055 0.000132 0.001092 3.117393 13.432589 -25.236209 0.000000 0.034905 0.284278 0.744714 0.000595 -0.091476 -0.176212 -0.000000 0.000000 2.334647 -77.513754 2.952429 -0.306861 0.000132 0.001092 5.566107 -15.242752 39.492051 0.000000 0.000000 0.000000 3.635261 -0.000001 0.000022 0.000000 0.000000 0.000000 3.635232 -0.000000 -0.000000 0.118590 -0.000000 -0.007534 8.867802 5.072240 0.072275 0.023045 0.000000 -0.439733 4.231483 0.345748 0.209123 -16.188872 0.614556 -3.873548 -8.180354 43.378545 30.774770 -0.118590 -0.000000 0.007534 10.787732 2.699229 -0.820918 -0.023282 -0.000000 -0.444255 1.005515 1.262529 -0.063740 -15.829696 -0.774224 4.102837 -12.212789 -42.568874 -32.588861 
0.062102 -0.081595 0.861424 -0.000000 0.000000 1.959539 -0.000000 0.000000 -0.000000 -5.631140 1.671226 0.170228 9.999451 0.083769 0.682208 -0.000000 0.034905 0.284278 12.059486 2.816776 19.841373 -0.000000 0.003661 0.209740 -0.480694 0.000002 -0.000002 -0.000000 0.034905 0.284278 0.518192 0.000288 -0.063700 0.176212 0.000000 -0.000000 36.581837 70.854026 -49.788128 0.321055 0.000132 0.001092 4.536915 17.010386 -28.747546 -0.000000 0.034905 0.284278 0.573504 0.000353 -0.070487 -0.176212 -0.000000 0.000000 11.158428 -77.466749 13.914467 -0.306861 0.000132 0.001092 7.435907 -17.062231 46.421114 0.000000 -0.000000 -0.000000 3.384266 -0.000001 0.000018 0.000000 -0.000000 -0.000000 3.384208 -0.000000 0.000000 0.118622 -0.000000 -0.007015 8.612611 4.928279 0.081069 0.023045 -0.000000 -0.439733 4.553849 0.425842 0.221894 -15.879905 0.724660 -4.024572 -8.135938 43.500420 31.074974 -0.118622 0.000000 0.007015 10.232025 2.561695 -0.766143 -0.023282 -0.000000 -0.444255 2.033527 1.450518 -0.132240 -15.716841 -0.750108 4.049724 -12.122059 -42.367848 -32.196228 
0.062503 -0.081656 0.865991 0.000000 0.000000 1.770173 0.000000 -0.000000 0.000000 -5.608101 1.668681 0.169630 9.999878 0.038849 0.316426 -0.000000 0.034905 0.284278 11.099062 2.734932 20.618999 -0.000000 0.003661 0.209740 0.130817 -0.000001 -0.000012 -0.000000 0.034905 0.284278 0.385446 0.000160 -0.047381 0.176212 0.000000 -0.000000 38.400106 68.837741 -53.807469 0.321055 0.000132 0.001092 5.865476 19.203731 -32.758397 -0.000000 0.034905 0.284278 0.440683 0.000209 -0.054147 -0.176212 -0.000000 -0.000000 18.223115 -76.548888 22.990360 -0.306861 0.000132 0.001092 10.724464 -20.902940 53.345584 0.000000 -0.000000 0.000000 3.144217 0.000000 -0.000014 0.000000 -0.000000 0.000000 3.144246 -0.000000 -0.000000 0.118650 -0.000000 -0.006518 8.543209 4.955750 0.078354 0.023045 0.000000 -0.439733 4.632144 0.321453 0.229925 -15.477726 0.689428 -3.920138 -8.309703 43.799770 31.445231 -0.118650 0.000000 0.006518 9.623048 2.660009 -0.728561 -0.023282 0.000000 -0.444255 3.014240 1.438735 -0.195733 -15.557614 -0.863242 4.224577 -12.050574 -42.153458 -31.738837 
